<svg xmlns="http://www.w3.org/2000/svg" xml:space="preserve" width="100" height="auto" viewBox="800 0 450 364" data-version="1" data-id="lg_Jw08zFtq7d4BgGl0Je"><g id="outer-wrapper" data-padding="20" transform="matrix(1,0,0,1,0,0)"><g id="inner-wrapper" transform="matrix(0.9449035812672176,0,0,0.9449035812672176,10,10.027548209366387)"><path fill="#e79027" d="M1143.4229560201443 23.86282951808181C1100.2599560201443 -1.3591704819181984 1046.1089560201444 -6.923170481918191 998.7199560201443 9.006829518081815C984.2679560201443 13.867829518081805 970.2399560201443 20.764829518081825 959.1359560201442 31.204829518081823C948.0329560201443 41.64482951808182 940.0379560201443 55.962829518081804 939.3489560201443 71.19782951808182C938.6619560201443 86.1748295180818 944.9009560201443 101.1288295180818 942.3719560201444 115.90882951808183C939.5599560201443 132.34882951808183 926.5469560201443 145.03382951808183 913.2219560201444 155.0708295180818S885.1619560201443 174.1508295180818 876.0049560201444 188.0878295180818C861.0499560201444 210.84182951808182 864.6379560201444 241.4528295180818 875.5369560201444 266.3998295180818C899.1709560201443 320.4918295180818 954.9439560201445 357.97982951808183 1013.7369560201444 363.25782951808173S1132.4199560201444 342.9748295180817 1172.3199560201442 299.4768295180818C1201.9049560201443 267.2168295180818 1220.6119560201444 225.81282951808183 1227.7189560201443 182.7848295180818C1234.3089560201443 142.84882951808183 1221.1049560201443 106.56582951808181 1197.6159560201445 73.65482951808181A176.7 176.7 0 0 0 1143.4379560201444 23.877829518081825Z " opacity=".63"></path><rect width="104.088" height="153.29" x="437.07100452642425" y="-248.307534196931" fill="none" rx="0" ry="0" transform="translate(400.66 378.92)scale(1.33)"></rect><path fill="#fff" d="M998.0629560201444 188.52882951808178V98.40882951808177Q998.0629560201444 94.70882951808179 999.4729560201444 91.40882951808177T1003.3429560201444 85.68882951808175T1009.1029560201443 81.81882951808174T1016.1029560201443 80.36882951808175H1084.5729560201444Q1088.2729560201444 80.36882951808175 1091.5729560201444 81.81882951808174T1097.3329560201444 85.68882951808175Q1099.8029560201444 88.10882951808176 1101.2029560201445 91.40882951808177Q1102.6129560201443 94.70882951808179 1102.6129560201443 98.40882951808177V114.6888295180818H1084.5729560201444V98.40882951808183H1016.1029560201443V188.52882951808184H1084.5729560201444V157.89882951808184H1050.3429560201444V139.85882951808182H1102.6129560201443V188.52882951808184Q1102.6129560201443 192.21882951808183 1101.2029560201443 195.51882951808184Q1099.8029560201444 198.81882951808186 1097.3329560201444 201.28882951808183Q1094.8729560201443 203.7488295180818 1091.5729560201444 205.15882951808183T1084.5729560201444 206.56882951808186H1016.1029560201443Q1012.4029560201443 206.56882951808186 1009.1029560201443 205.15882951808183T1003.3429560201444 201.28882951808183Q1000.8829560201443 198.8188295180818 999.4729560201444 195.51882951808184T998.0629560201444 188.52882951808184M1050.5229560201442 254.1388295180818A42.174 20.4 0 1 0 1050.5229560201442 294.9388295180818A42.174 20.4 0 1 0 1050.5229560201442 254.1388295180818 "></path></g><rect width="363" height="364" x="818.5" y="0" id="space-saver" fill="transparent" stroke="transparent"></rect></g></svg>